name C:/MyDriveSym/Projects/mobilecap/Data\Session20210820_0002\mocap\ForceDataProcessed\walking2_forces.mot
datacolumns 19
datarows 19
range 0.33950000 0.34850000
endheader 
time	R_ground_force_vx	R_ground_force_vy	R_ground_force_vz	R_ground_force_px	R_ground_force_py	R_ground_force_pz	R_ground_torque_x	R_ground_torque_y	R_ground_torque_z	L_ground_force_vx	L_ground_force_vy	L_ground_force_vz	L_ground_force_px	L_ground_force_py	L_ground_force_pz	L_ground_torque_x	L_ground_torque_y	L_ground_torque_z	
          0.33950000	         -6.12379300	        685.99060900	        -29.54288700	          0.23356000	          0.00600000	         -0.13923300	          0.00000000	         -4.08395700	          0.00000000	          0.00000000	          0.00000000	          0.00000000	          0.78600600	          0.00000000	         -0.23996500	          0.00000000	          0.00000000	          0.00000000	
          0.34000000	         -6.02848300	        686.08263300	        -29.65512600	          0.23383700	          0.00600000	         -0.13916600	          0.00000000	         -4.09390900	          0.00000000	          0.00000000	          0.00000000	          0.00000000	          0.78600600	          0.00000000	         -0.23996500	          0.00000000	          0.00000000	          0.00000000	
          0.34050000	         -5.92830400	        686.18371000	        -29.76754700	          0.23411300	          0.00600000	         -0.13910000	          0.00000000	         -4.10367000	          0.00000000	          0.00000000	          0.00000000	          0.00000000	          0.78600600	          0.00000000	         -0.23996500	          0.00000000	          0.00000000	          0.00000000	
          0.34100000	         -5.82342000	        686.29372600	        -29.88013200	          0.23438900	          0.00600000	         -0.13903400	          0.00000000	         -4.11324900	          0.00000000	          0.00000000	          0.00000000	          0.00000000	          0.78600600	          0.00000000	         -0.23996500	          0.00000000	          0.00000000	          0.00000000	
          0.34150000	         -5.71402400	        686.41251300	        -29.99287600	          0.23466400	          0.00600000	         -0.13896800	          0.00000000	         -4.12265900	          0.00000000	          0.00000000	          0.00000000	          0.00000000	          0.78600600	          0.00000000	         -0.23996500	          0.00000000	          0.00000000	          0.00000000	
          0.34200000	         -5.60033400	        686.53986800	        -30.10578200	          0.23493900	          0.00600000	         -0.13890200	          0.00000000	         -4.13191500	          0.00000000	          0.00000000	          0.00000000	          0.00000000	          0.78600600	          0.00000000	         -0.23996500	          0.00000000	          0.00000000	          0.00000000	
          0.34250000	         -5.48259000	        686.67557900	        -30.21885600	          0.23521200	          0.00600000	         -0.13883700	          0.00000000	         -4.14103700	          0.00000000	          0.00000000	          0.00000000	          0.00000000	          0.78600600	          0.00000000	         -0.23996500	          0.00000000	          0.00000000	          0.00000000	
          0.34300000	         -5.36105500	        686.81944900	        -30.33210700	          0.23548600	          0.00600000	         -0.13877200	          0.00000000	         -4.15004600	          0.00000000	          0.00000000	          0.00000000	          0.00000000	          0.78600600	          0.00000000	         -0.23996500	          0.00000000	          0.00000000	          0.00000000	
          0.34350000	         -5.23600600	        686.97128300	        -30.44554700	          0.23575800	          0.00600000	         -0.13870800	          0.00000000	         -4.15896100	          0.00000000	          0.00000000	          0.00000000	          0.00000000	          0.78600600	          0.00000000	         -0.23996500	          0.00000000	          0.00000000	          0.00000000	
          0.34400000	         -5.10775000	        687.13088000	        -30.55918800	          0.23603000	          0.00600000	         -0.13864400	          0.00000000	         -4.16779400	          0.00000000	          0.00000000	          0.00000000	          0.00000000	          0.78600600	          0.00000000	         -0.23996500	          0.00000000	          0.00000000	          0.00000000	
          0.34450000	         -4.97662400	        687.29802500	        -30.67304400	          0.23630200	          0.00600000	         -0.13858000	          0.00000000	         -4.17656200	          0.00000000	          0.00000000	          0.00000000	          0.00000000	          0.78600600	          0.00000000	         -0.23996500	          0.00000000	          0.00000000	          0.00000000	
          0.34500000	         -4.84298700	        687.47248300	        -30.78712700	          0.23657300	          0.00600000	         -0.13851700	          0.00000000	         -4.18527900	          0.00000000	          0.00000000	          0.00000000	          0.00000000	          0.78600600	          0.00000000	         -0.23996500	          0.00000000	          0.00000000	          0.00000000	
          0.34550000	         -4.70720700	        687.65398800	        -30.90145400	          0.23684300	          0.00600000	         -0.13845400	          0.00000000	         -4.19396600	          0.00000000	          0.00000000	          0.00000000	          0.00000000	          0.78600600	          0.00000000	         -0.23996500	          0.00000000	          0.00000000	          0.00000000	
          0.34600000	         -4.56964200	        687.84223900	        -31.01604200	          0.23711200	          0.00600000	         -0.13839200	          0.00000000	         -4.20264500	          0.00000000	          0.00000000	          0.00000000	          0.00000000	          0.78600600	          0.00000000	         -0.23996500	          0.00000000	          0.00000000	          0.00000000	
          0.34650000	         -4.43063900	        688.03689200	        -31.13090900	          0.23738000	          0.00600000	         -0.13833000	          0.00000000	         -4.21133900	          0.00000000	          0.00000000	          0.00000000	          0.00000000	          0.78600600	          0.00000000	         -0.23996500	          0.00000000	          0.00000000	          0.00000000	
          0.34700000	         -4.29053500	        688.23757900	        -31.24606500	          0.23764800	          0.00600000	         -0.13826800	          0.00000000	         -4.22007500	          0.00000000	          0.00000000	          0.00000000	          0.00000000	          0.78600600	          0.00000000	         -0.23996500	          0.00000000	          0.00000000	          0.00000000	
          0.34750000	         -4.14966600	        688.44393300	        -31.36151200	          0.23791500	          0.00600000	         -0.13820700	          0.00000000	         -4.22888100	          0.00000000	          0.00000000	          0.00000000	          0.00000000	          0.78600600	          0.00000000	         -0.23996500	          0.00000000	          0.00000000	          0.00000000	
          0.34800000	         -4.00835700	        688.65562300	        -31.47724500	          0.23818100	          0.00600000	         -0.13814600	          0.00000000	         -4.23778800	          0.00000000	          0.00000000	          0.00000000	          0.00000000	          0.78600600	          0.00000000	         -0.23996500	          0.00000000	          0.00000000	          0.00000000	
          0.34850000	         -3.86691700	        688.87237800	        -31.59324500	          0.23844600	          0.00600000	         -0.13808500	          0.00000000	         -4.24682100	          0.00000000	          0.00000000	          0.00000000	          0.00000000	          0.78600600	          0.00000000	         -0.23996500	          0.00000000	          0.00000000	          0.00000000	
